<svg xmlns="http://www.w3.org/2000/svg" xmlns:xlink="http://www.w3.org/1999/xlink" xmlns:inkscape="http://www.inkscape.org/namespaces/inkscape" version="1.1" width="1920" height="1080" viewBox="0 0 1920 1080">
<defs>
<clipPath id="clip_1">
<path transform="matrix(1,0,0,-1,0,1080)" d="M0 0H1920V1080H0Z"/>
</clipPath>
</defs>
<g clip-path="url(#clip_1)">
<path transform="matrix(1,0,0,-1,0,1080)" d="M0 1080H1920V0H0Z" fill="#ffffff"/>
<text xml:space="preserve" transform="matrix(1 0 -0 1 1833.5 1048.878)" font-size="42" font-family="AAAAAC+HelveticaNeue"><tspan y="0" x="0 23.352004">29</tspan></text>
<text xml:space="preserve" transform="matrix(1 0 -0 1 99 171.08979)" font-size="85" font-family="AAAAAB+HelveticaNeue-Bold" font-weight="bold"><tspan y="0" x="0 56.525007 106.76001 149.26001 196.35 245.05501 292.14503 339.23503">Advanced</tspan></text>
<text xml:space="preserve" transform="matrix(1 0 -0 1 99 171.08979)" font-size="85" font-family="AAAAAB+HelveticaNeue-Bold" font-weight="bold"><tspan y="0" x="389.47"> </tspan></text>
<text xml:space="preserve" transform="matrix(1 0 -0 1 99 171.08979)" font-size="85" font-family="AAAAAB+HelveticaNeue-Bold" font-weight="bold"><tspan y="0" x="411.4 466.395 497.75999 517.99 560.49 607.58 654.67007">Privacy</tspan></text>
<text xml:space="preserve" transform="matrix(1 0 -0 1 99 171.08979)" font-size="85" font-family="AAAAAB+HelveticaNeue-Bold" font-weight="bold"><tspan y="0" x="697.085"> </tspan></text>
<text xml:space="preserve" transform="matrix(1 0 -0 1 99 171.08979)" font-size="85" font-family="AAAAAB+HelveticaNeue-Bold" font-weight="bold"><tspan y="0" x="719.015 774.01 803.845 854.07998 904.31497 930.9199">Proofs</tspan></text>
<text xml:space="preserve" transform="matrix(1 0 -0 1 264.2558 502.643)" font-size="59.04" font-family="AAAAAV+Helvetica-Bold" font-weight="bold"><tspan y="0" x="0">&#x2023;</tspan></text>
<text xml:space="preserve" transform="matrix(1 0 -0 1 312.2558 498.60908)" font-size="48" font-family="AAAAAF+HelveticaNeue-Medium"><tspan y="0" x="0 13.344002 37.344 72 106.656009 138.67201"> zCDP </tspan></text>
<text xml:space="preserve" transform="matrix(1 0 -0 1 312.2558 498.60908)" font-size="48" font-family="AAAAAX+LucidaGrande-Bold" font-weight="bold"><tspan y="0" x="152.016">&#x2192;</tspan></text>
<text xml:space="preserve" transform="matrix(1 0 -0 1 312.2558 498.60908)" font-size="48" font-family="AAAAAF+HelveticaNeue-Medium"><tspan y="0" x="200.016 213.36002 242.68802 270.24003 286.272 312.96003 326.30403 360.96003 392.976 406.32 433.008 461.472 489.024 513.936 540.62399 557.51998 582.43197 593.99996 622.4639 650.0159 663.3599 692.6879 721.1519 748.7039 776.2559 805.5839 818.9279"> pure DP conversion bound  </tspan></text>
<text xml:space="preserve" transform="matrix(1 0 -0 1 264.2558 599.9822)" font-size="59.04" font-family="AAAAAV+Helvetica-Bold" font-weight="bold"><tspan y="0" x="0">&#x2023;</tspan></text>
<text xml:space="preserve" transform="matrix(1 0 -0 1 312.2558 595.9483)" font-size="48" font-family="AAAAAF+HelveticaNeue-Medium"><tspan y="0" x="0 13.344002 37.344 72 106.656009 138.67201"> zCDP </tspan></text>
<text xml:space="preserve" transform="matrix(1 0 -0 1 312.2558 595.9483)" font-size="48" font-family="AAAAAX+LucidaGrande-Bold" font-weight="bold"><tspan y="0" x="152.016">&#x2192;</tspan></text>
<text xml:space="preserve" transform="matrix(1 0 -0 1 312.2558 595.9483)" font-size="48" font-family="AAAAAF+HelveticaNeue-Medium"><tspan y="0" x="200.016 213.36002 240.04802 269.376 298.704 314.736 343.19999 368.97599 380.54399 422.304 448.992 464.976 491.664 505.008 539.664 571.68 585.024 611.712 640.17599 667.72799 692.63998 719.32797 736.22396 761.1359 772.7039 801.1679 828.7199 842.0639 871.3919 899.8559 927.4079 954.9599 984.2879"> approximate DP conversion bound </tspan></text>
<text xml:space="preserve" transform="matrix(1 0 -0 1 264.2558 697.3214)" font-size="59.04" font-family="AAAAAV+Helvetica-Bold" font-weight="bold"><tspan y="0" x="0">&#x2023;</tspan></text>
<text xml:space="preserve" transform="matrix(1 0 -0 1 312.2558 693.2875)" font-size="48" font-family="AAAAAF+HelveticaNeue-Medium"><tspan y="0" x="0 13.344002 42.672 70.224 86.256008 112.94401 126.28801 160.94402 192.96002 206.30402 234.76802 249.88802 263.23204 279.21604 306.76805 333.45606 346.80006 371.71205 401.04005 427.72804 444.62403 469.536 496.224 509.568 534.48 561.16799 587.85598 603.83999 632.30398 649.19998 662.54397 678.52798 705.21597 731.90396 759.45596 787.00796 798.5759 827.90396 855.45596 882.1439"> pure DP of the sparse vector technique </tspan></text>
<path transform="matrix(1,0,0,-1,0,1080)" d="M1545.683 656.0741C1542.541 656.0741 1540 653.5332 1540 650.3904V637.9633C1540 636.6617 1538.941 635.6032 1537.639 635.6031H1534.268C1532.966 635.6031 1531.907 634.5446 1531.907 633.243V621.1049C1531.907 619.8032 1532.966 618.7688 1534.268 618.7688H1537.639C1538.941 618.7688 1540 617.7103 1540 616.4086V598.2978H1517.65C1514.442 598.2978 1511.846 595.702 1511.846 592.4937V576.2614H1505.801V581.897C1505.801 584.6321 1503.574 586.8581 1500.84 586.8582H1478.081C1475.346 586.8582 1473.12 584.6313 1473.12 581.897V522.4348C1473.12 520.0681 1474.802 518.0842 1477.021 517.594V507.7198C1474.802 507.2296 1473.12 505.2457 1473.12 502.879V465.8868C1473.12 463.1516 1475.347 460.9496 1478.081 460.9496H1479.959L1473.698 453.3393C1472.666 452.0869 1472.316 450.397 1472.758 448.8356L1477.166 433.2295C1477.415 432.351 1478.226 431.7364 1479.141 431.7364H1482.344C1483.472 431.7364 1484.391 432.6551 1484.391 433.7835V445.0305C1484.391 447.8342 1486.669 450.1121 1489.472 450.1121 1492.276 450.1121 1494.53 447.8342 1494.53 445.0305V433.7835C1494.53 432.6552 1495.449 431.7364 1496.577 431.7364H1499.78C1500.693 431.7364 1501.506 432.3502 1501.755 433.2295L1506.162 448.8356C1506.605 450.3962 1506.254 452.0869 1505.223 453.3393L1498.961 460.9496H1500.84C1503.575 460.9496 1505.801 463.1525 1505.801 465.8868V502.879C1505.801 505.2457 1504.142 507.2297 1501.923 507.7198V517.594C1504.142 518.0842 1505.801 520.0688 1505.801 522.4348V544.134H1511.846V466.7538C1511.846 463.5455 1514.442 460.9496 1517.65 460.9496H1523.96V375.8386C1523.96 374.0044 1523.337 372.2158 1522.226 370.757L1513.989 359.9194C1512.878 358.4597 1512.255 356.6719 1512.255 354.8378V351.7069C1512.255 349.5575 1514.007 347.8053 1516.157 347.8054H1559.122C1561.271 347.8054 1563.023 349.5575 1563.023 351.7069V460.9496H1588.407V351.7069C1588.407 349.5575 1590.159 347.8053 1592.309 347.8054H1635.274C1637.423 347.8054 1639.151 349.5575 1639.151 351.7069V354.8378C1639.151 356.672 1638.553 358.4605 1637.441 359.9194L1629.181 370.757C1628.069 372.2166 1627.471 374.0044 1627.471 375.8386V460.9496H1633.781C1636.989 460.9496 1639.585 463.5455 1639.585 466.7538V544.134H1645.63V522.4348C1645.63 520.0681 1647.288 518.0842 1649.507 517.594V507.7198C1647.288 507.2296 1645.63 505.245 1645.63 502.879V465.8868C1645.63 463.1516 1647.857 460.9496 1650.591 460.9496H1652.469L1646.208 453.3393C1645.177 452.0869 1644.826 450.397 1645.268 448.8356L1649.676 433.2295C1649.925 432.351 1650.737 431.7364 1651.651 431.7364H1654.854C1655.982 431.7364 1656.877 432.6551 1656.877 433.7835V445.0305C1656.877 447.8342 1659.155 450.1121 1661.958 450.1121 1664.762 450.1121 1667.04 447.8342 1667.04 445.0305V433.7835C1667.04 432.6552 1667.96 431.7364 1669.087 431.7364H1672.29C1673.203 431.7364 1673.991 432.3502 1674.241 433.2295L1678.672 448.8356C1679.116 450.397 1678.764 452.0876 1677.733 453.3393L1671.471 460.9496H1673.35C1676.084 460.9496 1678.311 463.1525 1678.311 465.8868V502.879C1678.311 505.2457 1676.628 507.2297 1674.409 507.7198V517.594C1676.628 518.0842 1678.311 520.068 1678.311 522.4348V581.897C1678.311 584.6321 1676.084 586.8581 1673.35 586.8582H1650.591C1647.856 586.8582 1645.63 584.6313 1645.63 581.897V576.2614H1639.585V592.4937C1639.585 595.702 1636.989 598.2978 1633.781 598.2978H1611.431V616.4086C1611.431 617.7103 1612.49 618.7688 1613.791 618.7688H1617.163C1618.465 618.7688 1619.523 619.8032 1619.523 621.1049V633.243C1619.523 634.5446 1618.465 635.6032 1617.163 635.6031H1613.791C1612.49 635.6031 1611.431 636.6617 1611.431 637.9633V650.3904C1611.431 653.5332 1608.89 656.0741 1605.747 656.0741H1545.683ZM1560.928 635.6031C1565.572 635.6031 1569.333 631.8172 1569.333 627.1739 1569.333 622.5306 1565.571 618.7688 1560.928 618.7688 1556.284 618.7688 1552.523 622.5306 1552.523 627.1739 1552.523 631.8172 1556.284 635.6031 1560.928 635.6031ZM1590.503 635.6031C1595.147 635.6031 1598.908 631.8172 1598.908 627.1739 1598.908 622.5306 1595.146 618.7688 1590.503 618.7688 1585.859 618.7688 1582.097 622.5306 1582.097 627.1739 1582.097 631.8172 1585.858 635.6031 1590.503 635.6031ZM1550.042 577.9473H1601.388V544.8325H1550.042V577.9473ZM1555.75 531.6829C1558.897 531.6829 1561.434 529.121 1561.434 525.9751 1561.434 522.8284 1558.896 520.2914 1555.75 520.2914 1552.604 520.2914 1550.042 522.8292 1550.042 525.9751 1550.042 529.1217 1552.603 531.6828 1555.75 531.6829ZM1575.715 531.6829C1578.861 531.6829 1581.423 529.1217 1581.423 525.9751 1581.423 522.8284 1578.861 520.2914 1575.715 520.2914 1572.569 520.2914 1570.008 522.8292 1570.008 525.9751 1570.008 529.1217 1572.569 531.6828 1575.715 531.6829ZM1595.681 531.6829C1598.826 531.6829 1601.388 529.1217 1601.388 525.9751 1601.388 522.8284 1598.826 520.2914 1595.681 520.2914 1592.534 520.2914 1589.997 522.8292 1589.997 525.9751 1589.997 529.1217 1592.535 531.6828 1595.681 531.6829ZM1575.715 509.4056C1585.561 509.4056 1594.812 505.5785 1601.774 498.6162L1586.673 483.4918C1583.749 486.4157 1579.851 488.0436 1575.715 488.0436 1571.58 488.0436 1567.681 486.4157 1564.757 483.4918L1549.657 498.6162C1556.619 505.5777 1565.87 509.4056 1575.715 509.4056ZM1575.715 509.4056"/>
<path transform="matrix(1,0,0,-1,0,1080)" d="M1404.077 732.1946C1445.105 732.1946 1478.359 700.8926 1478.359 662.2884 1478.359 659.1609 1478.063 656.1196 1477.64 653.1009L1503.859 622.7259 1461.796 618.3196C1448.176 602.5058 1427.395 592.3821 1404.077 592.3821 1363.05 592.3821 1329.796 623.6841 1329.796 662.2884 1329.796 700.8926 1363.05 732.1946 1404.077 732.1946ZM1404.077 732.1946"/>
<path transform="matrix(1,0,0,-1,0,1080)" d="M1410.298 696.1163C1410.768 696.1142 1411.24 695.9457 1411.621 695.5892 1413.066 694.2373 1414.614 691.87 1414.292 688.0599 1413.727 681.3908 1408.06 679.2758 1412.024 672.1011 1412.024 672.1011 1415.244 672.481 1421.547 671.2706 1426.857 670.251 1429.088 670.9126 1431.419 669.6842 1435.433 667.5683 1434.138 662.3939 1430.136 660.7425 1433.556 658.5406 1434.564 653.45 1428.689 651.2041 1431.976 647.8077 1432.016 643.4867 1426.849 642.0286 1430.285 638.4505 1427.134 634.1462 1423.482 634.1462 1395.881 634.1462 1400.447 636.1653 1391.798 636.1653 1382.326 636.1653 1375.795 632.4603 1375.795 632.4603V661.2547C1375.795 661.2547 1383.875 663.5257 1389.257 666.3124 1391.478 667.4628 1393.814 668.9728 1396.1 676.6267 1398.208 683.6847 1403.103 684.4438 1404.828 687.3338 1405.895 688.8916 1407.414 692.4883 1408.403 694.8631 1408.737 695.6651 1409.515 696.1199 1410.298 696.1163ZM1410.298 696.1163" fill="#ffffff"/>
</g>
</svg>
